<svg width="590" height="723" viewBox="0 0 590 723" fill="none" xmlns="http://www.w3.org/2000/svg">
<path fill-rule="evenodd" clip-rule="evenodd" d="M124.19 334V132.215C124.19 121.169 133.145 112.215 144.19 112.215H449.63C460.676 112.215 469.63 121.169 469.63 132.215V257.125C469.63 268.17 478.584 277.125 489.63 277.125H527C538.046 277.125 547 268.17 547 257.125V51C547 39.9543 538.046 31 527 31H69.0338C57.9749 31 49.0151 39.9749 49.0338 51.0337L49.5128 335H30C13.4315 335 0 348.431 0 365V693C0 709.569 13.4315 723 30 723H560C576.569 723 590 709.569 590 693V365C590 348.431 576.569 335 560 335H124.166C124.182 334.669 124.19 334.335 124.19 334Z" fill="#000080" fill-opacity="0.9"/>
</svg>
